HIERARCHY
ROOT Hips
{
	OFFSET 0.00000 0.00000 0.00000
	CHANNELS 6 Xposition Yposition Zposition Zrotation Yrotation Xrotation 
	JOINT LHipJoint
	{
		OFFSET 0 0 0
		CHANNELS 3 Zrotation Yrotation Xrotation
		JOINT LeftHip
		{
			OFFSET 1.38691 -1.89057 0.78360
			CHANNELS 3 Zrotation Yrotation Xrotation
			JOINT LeftKnee
			{
				OFFSET 2.59731 -7.13606 0.00000
				CHANNELS 3 Zrotation Yrotation Xrotation
				JOINT LeftAnkle
				{
					OFFSET 2.70078 -7.42033 0.00000
					CHANNELS 3 Zrotation Yrotation Xrotation
					JOINT LeftToe
					{
						OFFSET 0.16751 -0.46024 2.68862
						CHANNELS 3 Zrotation Yrotation Xrotation
						End Site
						{
							OFFSET 0.00000 -0.00000 1.37057
						}
					}
				}
			}
		}
	}
	JOINT RHipJoint
	{
		OFFSET 0 0 0
		CHANNELS 3 Zrotation Yrotation Xrotation
		JOINT RightHip
		{
			OFFSET -1.38190 -1.89056 0.78359
			CHANNELS 3 Zrotation Yrotation Xrotation
			JOINT RightKnee
			{
				OFFSET -2.57785 -7.08258 0.00000
				CHANNELS 3 Zrotation Yrotation Xrotation
				JOINT RightAnkle
				{
					OFFSET -2.77908 -7.63547 0.00000
					CHANNELS 3 Zrotation Yrotation Xrotation
					JOINT RightToe
					{
						OFFSET -0.17921 -0.49237 2.62360
						CHANNELS 3 Zrotation Yrotation Xrotation
						End Site
						{
							OFFSET -0.00000 -0.00000 1.34085
						}
					}
				}
			}
		}
	}
	JOINT lowerback
	{
		OFFSET 0 0 0
		CHANNELS 3 Zrotation Yrotation Xrotation
		JOINT Chest
		{
			OFFSET -0.10749 2.04110 -0.22549
			CHANNELS 3 Zrotation Yrotation Xrotation
			JOINT Chest2
			{
				OFFSET 0.01213 2.05840 0.00691
				CHANNELS 3 Zrotation Yrotation Xrotation
				JOINT lowerneck
				{
					OFFSET 0 0 0
					CHANNELS 3 Zrotation Yrotation Xrotation
					JOINT Neck
					{
						OFFSET 0.06585 1.81215 0.35449
						CHANNELS 3 Zrotation Yrotation Xrotation
						JOINT Head
						{
							OFFSET -0.04315 1.87555 -0.27307
							CHANNELS 3 Zrotation Yrotation Xrotation
							End Site
							{
								OFFSET -0.01775 1.89740 -0.13294
							}
						}
					}
				}
				JOINT LeftCollar
				{
					OFFSET 0 0 0
					CHANNELS 3 Zrotation Yrotation Xrotation
					JOINT LeftShoulder
					{
						OFFSET 2.98012 1.63606 0.28888
CHANNELS 3 Zrotation Xrotation Yrotation
						JOINT LeftElbow
						{
OFFSET 0 -5.598640 -0.000000
CHANNELS 3 Zrotation Xrotation Yrotation
							JOINT LeftWrist
							{
OFFSET 0 -3.595420 -0.000000
CHANNELS 3 Zrotation Xrotation Yrotation
								JOINT lhand
								{
									OFFSET 0 0 0
CHANNELS 3 Zrotation Xrotation Yrotation
									JOINT LFingers
									{
OFFSET 0 -0.572010 -0.000000
CHANNELS 3 Zrotation Xrotation Yrotation
										End Site
										{
OFFSET 0 -0.461170 -0.000000
										}
									}
								}
								JOINT LThumb
								{
OFFSET 0 0.000000 0.000000
CHANNELS 3 Zrotation Xrotation Yrotation
									End Site
									{
OFFSET 0 -0.468210 0.468210
									}
								}
							}
						}
					}
				}
				JOINT RightCollar
				{
					OFFSET 0 0 0
					CHANNELS 3 Zrotation Yrotation Xrotation
					JOINT RightShoulder
					{
						OFFSET -3.08694 1.53706 0.36335
CHANNELS 3 Zrotation Xrotation Yrotation
						JOINT RightElbow
						{
OFFSET 0 -5.809400 -0.000000
CHANNELS 3 Zrotation Xrotation Yrotation
							JOINT RightWrist
							{
OFFSET 0 -3.669530 -0.000000
CHANNELS 3 Zrotation Xrotation Yrotation
								JOINT rhand
								{
									OFFSET 0 0 0
CHANNELS 3 Zrotation Xrotation Yrotation
									JOINT RFingers
									{
OFFSET 0 -0.578430 -0.000000
CHANNELS 3 Zrotation Xrotation Yrotation
										End Site
										{
OFFSET 0 -0.466350 -0.000000
										}
									}
								}
								JOINT RThumb
								{
OFFSET 0 0.000000 0.000000
CHANNELS 3 Zrotation Xrotation Yrotation
									End Site
									{
OFFSET 0 -0.473470 0.473470
									}
								}
							}
						}
					}
				}
			}
		}
	}
}
MOTION
Frames: 7
Frame Time: 0.008333333333333333
-12.912018 18.484920 5.575420 -16.464635 74.717790 -11.946161 0.000000 0.000000 0.000000 -7.075494 -11.392076 -15.984732 10.429071 17.644200 60.913153 6.284752 -10.505482 -46.254761 1.702620 -8.216594 -23.374043 0.000000 0.000000 0.000000 14.489272 7.130369 -25.716052 -10.668776 -17.769049 61.701111 -0.440301 25.456427 -20.706926 -0.087980 1.905880 -5.245977 -3.973026 -3.890798 11.325933 -0.333572 -5.750693 -1.156201 2.854107 -2.650203 -7.215374 -2.703530 -6.144641 -17.860220 2.581377 -8.658639 36.470324 0.016308 -3.370943 16.302068 0.000000 0.000000 0.000000 6.084592 -9.838630 -67.076833 97.857270 -59.765440 66.799255 39.462787 -29.432121 -1.439818 0.000000 0.000000 0.000000 -7.125000 0.000000 0.000000 10.313839 31.735832 3.394662 0.000000 0.000000 0.000000 -17.023043 15.245037 40.573829 -49.410968 -52.754977 -25.704566 -40.456243 -16.468092 -5.786305 0.000000 0.000000 0.000000 7.125000 0.000000 0.000000 -10.036038 22.428343 -5.530765
-12.909051 18.481667 5.784237 -16.987272 75.037156 -12.353546 0.000000 0.000000 0.000000 -6.975950 -11.724465 -16.007448 10.440432 17.650217 60.950604 6.367532 -10.413187 -46.590239 1.730559 -8.280578 -23.569579 0.000000 0.000000 0.000000 14.429416 7.648749 -25.393348 -10.598601 -17.732813 61.470879 -0.219977 25.931187 -19.683572 -0.068723 1.673922 -4.605789 -4.056900 -3.912023 11.265828 -0.356245 -5.789300 -1.164193 2.877938 -2.667220 -7.181421 -2.709679 -6.161301 -17.825015 2.592488 -8.682235 36.492512 0.018941 -3.378738 16.306997 0.000000 0.000000 0.000000 6.477952 -9.357140 -66.720829 97.769907 -59.770657 66.723780 39.442170 -29.325582 -1.607243 0.000000 0.000000 0.000000 -7.125000 0.000000 0.000000 10.318285 31.948503 3.343046 0.000000 0.000000 0.000000 -16.691841 15.503656 40.431356 -49.205704 -52.669822 -25.541287 -40.398381 -16.234447 -5.882215 0.000000 0.000000 0.000000 7.125000 0.000000 0.000000 -9.979718 22.311379 -5.525754
-12.905784 18.477245 5.993229 -17.418320 75.348960 -12.674043 0.000000 0.000000 0.000000 -6.899017 -12.067575 -16.010513 10.444653 17.652428 60.964473 6.442053 -10.394745 -46.886364 1.748498 -8.321130 -23.693899 0.000000 0.000000 0.000000 14.361327 8.126882 -25.058579 -10.518401 -17.691055 61.207266 0.000471 26.427812 -18.669820 -0.048371 1.399304 -3.848516 -4.153934 -3.925138 11.202714 -0.392375 -5.819400 -1.169921 2.893063 -2.679933 -7.144034 -2.700131 -6.178135 -17.786824 2.584146 -8.703692 36.497487 0.011102 -3.387130 16.299861 0.000000 0.000000 0.000000 6.886186 -8.864133 -66.366815 97.697245 -59.774928 66.660967 39.327851 -29.135836 -1.813672 0.000000 0.000000 0.000000 -7.125000 0.000000 0.000000 10.252708 32.209704 3.255611 0.000000 0.000000 0.000000 -16.383002 15.765360 40.295027 -48.988874 -52.579171 -25.368978 -40.345668 -16.060078 -6.011359 0.000000 0.000000 0.000000 7.125000 0.000000 0.000000 -9.921930 22.151331 -5.529623
-12.902233 18.470908 6.201392 -17.844426 75.654657 -13.000957 0.000000 0.000000 0.000000 -6.834038 -12.458478 -15.972280 10.445898 17.653086 60.968535 6.507880 -10.490703 -47.139354 1.742088 -8.306540 -23.649323 0.000000 0.000000 0.000000 14.338444 8.495143 -24.726140 -10.427618 -17.643112 60.907917 0.186401 26.870614 -17.833736 -0.036533 1.232150 -3.387734 -4.243955 -3.939444 11.143377 -0.435880 -5.849733 -1.158313 2.896027 -2.693863 -7.091614 -2.696664 -6.187050 -17.766980 2.593737 -8.717956 36.476766 0.012838 -3.391614 16.285480 0.000000 0.000000 0.000000 7.301329 -8.399797 -66.010834 97.631906 -59.778760 66.604520 39.306583 -28.948057 -2.089398 0.000000 0.000000 0.000000 -7.125000 0.000000 0.000000 10.270065 32.560413 3.171875 0.000000 0.000000 0.000000 -16.052453 15.968558 40.138048 -48.708827 -52.460521 -25.146857 -40.272073 -15.947321 -6.162213 0.000000 0.000000 0.000000 7.125000 0.000000 0.000000 -9.846029 21.966080 -5.528084
-12.898414 18.462767 6.408776 -18.265876 75.954601 -13.333917 0.000000 0.000000 0.000000 -6.780320 -12.894401 -15.895145 10.444340 17.652282 60.963359 6.565518 -10.694418 -47.351712 1.712742 -8.240008 -23.445658 0.000000 0.000000 0.000000 14.358142 8.759913 -24.395894 -10.326866 -17.589344 60.574907 0.339815 27.262718 -17.165004 -0.032714 1.166222 -3.206230 -4.327371 -3.954871 11.087599 -0.486331 -5.880285 -1.130373 2.887535 -2.708938 -7.025032 -2.698926 -6.188508 -17.764418 2.620219 -8.725443 36.431843 0.023591 -3.392418 16.264274 0.000000 0.000000 0.000000 7.722981 -7.962468 -65.653001 97.573464 -59.782177 66.554069 39.372964 -28.762131 -2.430397 0.000000 0.000000 0.000000 -7.125000 0.000000 0.000000 10.365541 32.995430 3.091625 0.000000 0.000000 0.000000 -15.701454 16.116646 39.961619 -48.369235 -52.315498 -24.877817 -40.178809 -15.892598 -6.333517 0.000000 0.000000 0.000000 7.125000 0.000000 0.000000 -9.753065 21.757088 -5.521451
-12.894200 18.456895 6.615421 -18.625815 76.249297 -13.608793 0.000000 0.000000 0.000000 -6.722303 -13.237158 -15.843940 10.440857 17.650449 60.951853 6.617062 -10.936565 -47.537904 1.691019 -8.190437 -23.294062 0.000000 0.000000 0.000000 14.346319 9.025368 -24.042911 -10.218833 -17.530723 60.216655 0.501090 27.764604 -16.549368 -0.025097 0.995813 -2.737476 -4.370033 -3.935638 11.045353 -0.588878 -5.864492 -1.129946 2.797510 -2.701698 -7.008541 -2.603987 -6.218241 -17.653892 2.620587 -8.797528 36.358906 -0.001476 -3.412794 16.197067 0.000000 0.000000 0.000000 8.210443 -7.459433 -65.409829 97.502019 -59.786279 66.492328 39.445490 -28.686857 -2.595222 0.000000 0.000000 0.000000 -7.125000 0.000000 0.000000 10.444505 33.206769 3.062442 0.000000 0.000000 0.000000 -15.206777 16.356975 39.668470 -47.981477 -52.146973 -24.571452 -40.181399 -15.710605 -6.435422 0.000000 0.000000 0.000000 7.125000 0.000000 0.000000 -9.738970 21.626174 -5.543042
-12.889627 18.453076 6.821397 -18.930081 76.539242 -13.831101 0.000000 0.000000 0.000000 -6.660395 -13.495596 -15.816202 10.435631 17.647685 60.934617 6.663091 -11.213495 -47.700414 1.676195 -8.156217 -23.189591 0.000000 0.000000 0.000000 14.305968 9.291444 -23.669350 -10.104212 -17.467709 59.835555 0.669479 28.365851 -15.981790 -0.014042 0.730842 -2.008745 -4.375812 -3.885036 11.015353 -0.738574 -5.806755 -1.154418 2.633694 -2.674261 -7.037384 -2.421075 -6.273567 -17.445655 2.597321 -8.928079 36.260616 -0.058962 -3.450884 16.088224 0.000000 0.000000 0.000000 8.757469 -6.896929 -65.270435 97.418805 -59.791003 66.420369 39.523579 -28.711731 -2.600599 0.000000 0.000000 0.000000 -7.125000 0.000000 0.000000 10.508524 33.215663 3.079477 0.000000 0.000000 0.000000 -14.582064 16.680789 39.269682 -47.550128 -51.957177 -24.231307 -40.270744 -15.413424 -6.474516 0.000000 0.000000 0.000000 7.125000 0.000000 0.000000 -9.796256 21.565923 -5.590177
